<!DOCTYPE svg PUBLIC "-//W3C//DTD SVG 1.1//EN" "http://www.w3.org/Graphics/SVG/1.1/DTD/svg11.dtd">
<!-- Uploaded to: SVG Repo, www.svgrepo.com, Transformed by: SVG Repo Mixer Tools -->
<svg fill="#0d6317" width="64px" height="64px" viewBox="0 0 24 24" xmlns="http://www.w3.org/2000/svg" id="warning-alt" class="icon glyph" stroke="#0d6317">
<g id="SVGRepo_bgCarrier" stroke-width="0"/>
<g id="SVGRepo_tracerCarrier" stroke-linecap="round" stroke-linejoin="round"/>
<g id="SVGRepo_iconCarrier">
<path d="M22.25,17.55,14.63,3.71a3,3,0,0,0-5.26,0L1.75,17.55A3,3,0,0,0,4.38,22H19.62a3,3,0,0,0,2.63-4.45ZM12,18a1,1,0,1,1,1-1A1,1,0,0,1,12,18Zm1-5a1,1,0,0,1-2,0V9a1,1,0,0,1,2,0Z"/>
</g>
</svg>